<svg width="22" height="22" viewBox="0 0 22 22" fill="none" xmlns="http://www.w3.org/2000/svg">
<path d="M18.3147 13.4077C18.3147 13.3817 18.3147 13.3557 18.3147 13.3193V13.0644C18.3147 12.8408 18.3147 12.5236 18.3147 12.1284C18.3147 11.3431 18.3147 10.2666 18.3095 9.10173C18.3043 6.30911 18.3043 3.93772 18.2991 2.75203C18.2991 2.3464 18.1119 2.12278 17.7427 2.08118C17.7323 2.08118 17.7219 2.08118 17.7063 2.07598C17.6958 2.07598 17.6646 2.07598 17.623 2.07078H17.6178C17.4774 2.07078 14.7212 2.07078 14.7212 2.07078C14.664 2.07078 14.6588 2.07078 14.6224 2.00837C14.2324 1.28551 13.5927 0.895484 12.7763 0.890284C12.1782 0.885083 11.5594 0.879883 10.9405 0.879883C10.3217 0.879883 9.69242 0.885083 9.05797 0.890284C8.2415 0.895484 7.60705 1.28551 7.21182 2.01357C7.17542 2.07598 7.17022 2.07598 7.11301 2.07598H7.09741C7.00381 2.07598 6.62938 2.07598 6.32775 2.07598C6.30695 2.07598 4.23719 2.07598 4.12798 2.07598C4.11758 2.07598 4.10718 2.07598 4.09678 2.08118C3.59754 2.12798 3.52473 2.46081 3.52473 2.80924C3.52473 2.96005 3.52473 18.0464 3.51953 20.3294C3.51953 20.5946 3.56113 20.8963 3.86796 21.0939L3.90436 21.1199H17.7739C17.9351 21.1199 18.3147 21.0419 18.3147 20.3346C18.3147 18.2597 18.3147 15.9923 18.3147 13.4077ZM8.12709 3.26167C8.12709 3.25647 8.12709 3.25127 8.12709 3.24607C8.1323 3.18366 8.1323 3.12646 8.1323 3.06926C8.1375 2.92364 8.1375 2.78323 8.1843 2.65322C8.30911 2.29959 8.63673 2.05518 8.99556 2.05518H9.01636C9.04237 2.05518 9.84323 2.05518 10.9197 2.05518C11.9962 2.05518 12.7971 2.05518 12.8231 2.05518H12.8439C13.2027 2.05518 13.5251 2.29959 13.6551 2.65322C13.7019 2.78323 13.7019 2.91844 13.7071 3.06926C13.7071 3.12646 13.7071 3.18887 13.7123 3.24607C13.7123 3.25127 13.7123 3.25647 13.7123 3.26167C13.7071 3.26167 13.7019 3.26167 13.6915 3.26167H13.6863C13.5667 3.26167 12.1678 3.26167 10.9197 3.26167C9.67162 3.26167 8.26751 3.26167 8.1531 3.26167H8.1479C8.1375 3.26167 8.1323 3.26167 8.12709 3.26167ZM17.1498 19.955C17.1394 19.955 17.1238 19.955 17.0978 19.955H17.0926C16.7858 19.955 13.6759 19.955 10.9145 19.955C8.1531 19.955 5.04325 19.955 4.73643 19.955H4.73123C4.71043 19.955 4.68962 19.955 4.67922 19.955C4.67922 19.9446 4.67922 19.929 4.67922 19.9082C4.68442 16.4499 4.67922 5.44064 4.67922 3.29807C4.67922 3.27207 4.67922 3.25647 4.67922 3.24087C4.68962 3.24087 4.70002 3.24087 4.71563 3.24087H4.72603C4.79883 3.24087 5.52169 3.24087 6.15614 3.24087C6.54617 3.24087 6.9206 3.24087 6.9726 3.24087C6.9674 3.42288 6.9726 3.6049 6.9726 3.79731C6.9778 4.19774 7.21182 4.42656 7.61225 4.42656C8.70954 4.42656 9.80683 4.42656 10.9093 4.42656C12.0118 4.42656 13.1039 4.42656 14.2064 4.42656C14.6068 4.42656 14.8408 4.19774 14.846 3.79731C14.8512 3.6101 14.8512 3.42288 14.846 3.24087C15.1424 3.24087 16.973 3.24087 17.0926 3.23567H17.103C17.1186 3.23567 17.129 3.23567 17.1394 3.23567C17.1394 3.24607 17.1394 3.26687 17.1394 3.29287C17.1394 5.43544 17.1394 16.4499 17.1394 19.903C17.1498 19.929 17.1498 19.9446 17.1498 19.955Z" fill="white"/>
<path d="M15.6575 15.3994C15.6575 15.7218 15.3975 15.987 15.0698 15.987H6.58276C6.26034 15.987 5.99512 15.727 5.99512 15.3994C5.99512 15.0769 6.25514 14.8117 6.58276 14.8117H15.075C15.3923 14.8117 15.6575 15.0717 15.6575 15.3994Z" fill="white"/>
<path d="M15.7402 17.7656C15.7402 18.1037 15.475 18.3533 15.1109 18.3533C14.6221 18.3533 14.1177 18.3533 13.6184 18.3533C13.1244 18.3533 12.6251 18.3533 12.1207 18.3533C11.7515 18.3533 11.4915 18.1141 11.4915 17.7708C11.4915 17.4276 11.7463 17.1884 12.1155 17.1884C12.3183 17.1884 12.5211 17.1884 12.7292 17.1884C12.8748 17.1884 13.0256 17.1884 13.1712 17.1884H14.0553C14.2009 17.1884 14.3465 17.1884 14.4973 17.1884C14.7001 17.1884 14.9081 17.1884 15.1109 17.1884C15.4698 17.1884 15.7402 17.4328 15.7402 17.7656Z" fill="white"/>
<path d="M14.8922 8.48288C14.8922 8.08245 14.6582 7.85363 14.2577 7.84843H13.9977C13.8105 7.84843 13.6181 7.84843 13.4309 7.84843C13.15 7.84843 12.916 7.84843 12.7028 7.85363H12.6924C12.6872 7.85363 12.682 7.85363 12.682 7.85363C12.682 7.84323 12.682 7.83803 12.682 7.82243C12.6924 7.29199 12.6872 6.74594 12.682 6.26231C12.682 5.85667 12.4532 5.63306 12.0423 5.63306C11.8967 5.63306 11.7511 5.63306 11.6055 5.63306H11.2727C11.1635 5.63306 11.0491 5.63306 10.9399 5.63306H10.6122H10.269C10.1286 5.63306 9.98819 5.63306 9.84778 5.63306C9.36934 5.63306 9.14572 5.86187 9.14572 6.34551C9.14572 6.45472 9.14572 6.56393 9.14572 6.66794C9.14572 7.05277 9.14572 7.4532 9.15092 7.84323V7.84843H9.14572C8.9377 7.84323 8.70889 7.84323 8.43326 7.84323C8.27725 7.84323 8.12124 7.84323 7.97043 7.84323C7.85602 7.84323 7.74161 7.84323 7.6272 7.84323C7.15916 7.84323 6.93555 8.06685 6.93555 8.52449C6.93555 9.27854 6.93555 10.0118 6.93555 10.7035C6.93555 11.1455 7.17477 11.3847 7.6168 11.3847C7.71561 11.3847 7.81962 11.3847 7.91842 11.3847C8.08484 11.3847 8.25645 11.3847 8.42286 11.3847C8.69329 11.3847 8.9117 11.3847 9.11972 11.3795H9.13012C9.14052 11.3795 9.15092 11.3795 9.15612 11.3795C9.15612 11.3847 9.15612 11.3951 9.15612 11.4107C9.14572 11.8579 9.15092 12.3052 9.15092 12.742V12.9292C9.15092 13.3505 9.39014 13.5949 9.80617 13.5949C10.165 13.5949 10.5342 13.5949 10.9139 13.5949C11.2779 13.5949 11.6575 13.5949 12.0475 13.5949C12.4636 13.5949 12.6924 13.3661 12.6924 12.95V12.8876C12.6976 12.3988 12.6976 11.8892 12.6924 11.3899V11.3743C12.6976 11.3743 12.6976 11.3743 12.7028 11.3743H12.708C12.9316 11.3795 13.1656 11.3795 13.4517 11.3795C13.6597 11.3795 13.8625 11.3795 14.0653 11.3795H14.2473C14.679 11.3795 14.9078 11.1559 14.9078 10.7295C14.8922 9.9286 14.8922 9.19014 14.8922 8.48288ZM13.7273 10.225C13.7221 10.225 13.7169 10.225 13.7065 10.225H13.6961C13.4777 10.2198 13.2436 10.2198 12.9628 10.2198C12.7652 10.2198 12.5728 10.2198 12.3804 10.2198H12.162C11.7511 10.2198 11.5119 10.4538 11.5119 10.8647C11.5067 11.2911 11.5067 11.8579 11.5119 12.4248V12.4404H11.4963C11.3039 12.4352 11.1063 12.4352 10.9035 12.4352C10.7058 12.4352 10.503 12.4352 10.3002 12.4404H10.295V12.4352C10.3002 12.2376 10.3002 12.04 10.3002 11.8527C10.3002 11.7747 10.3002 11.6967 10.3002 11.6187C10.3002 11.5355 10.3002 11.4523 10.3002 11.3691C10.3002 11.1975 10.3002 11.0155 10.3002 10.8387C10.295 10.459 10.0662 10.2302 9.68656 10.225H9.57215C9.33814 10.225 9.09892 10.2198 8.8649 10.2198C8.57888 10.2198 8.33966 10.2198 8.11084 10.225H8.10044C8.09524 10.225 8.09004 10.225 8.08484 10.225V10.199C8.09524 9.82459 8.09524 9.42936 8.08484 9.02373C8.08484 9.01852 8.08484 9.01332 8.08484 9.01332H8.10564C8.30845 9.01852 8.53207 9.01852 8.80249 9.01852C8.95331 9.01852 9.10412 9.01852 9.26013 9.01852C9.37454 9.01852 9.49415 9.01852 9.60856 9.01852C10.1026 9.01852 10.3106 8.80531 10.3106 8.31127C10.3106 8.18126 10.3106 8.05645 10.3106 7.92644C10.3106 7.57281 10.3158 7.20878 10.3054 6.84995C10.3054 6.82915 10.3054 6.81355 10.3054 6.80315C10.3106 6.80315 10.321 6.80315 10.3366 6.80315C10.3418 6.80315 10.3522 6.80315 10.3626 6.80315C10.555 6.80835 10.7422 6.81355 10.9243 6.81355C11.1115 6.81355 11.2987 6.80835 11.4807 6.80315C11.4859 6.80315 11.4911 6.80315 11.4963 6.80315C11.5015 6.80315 11.5119 6.80315 11.5171 6.80315C11.5171 6.81355 11.5171 6.82915 11.5171 6.84995C11.5067 7.24518 11.5119 7.64041 11.5119 8.02525C11.5119 8.12405 11.5119 8.22806 11.5119 8.32687C11.5119 8.78451 11.7459 9.01852 12.1984 9.01852C12.3128 9.01852 12.4324 9.01852 12.552 9.01852C12.708 9.01852 12.864 9.01852 13.02 9.01852C13.2852 9.01852 13.4985 9.01852 13.7013 9.01332H13.7117C13.7221 9.01332 13.7273 9.01332 13.7325 9.01332C13.7325 9.02372 13.7325 9.03413 13.7325 9.04973C13.7221 9.46576 13.7221 9.84019 13.7325 10.2042V10.225H13.7273Z" fill="white"/>
<path d="M10.3269 17.7657C10.3269 18.1037 10.0616 18.3534 9.69761 18.3534C9.20877 18.3534 8.70433 18.3534 8.20509 18.3534C7.71105 18.3534 7.21181 18.3534 6.70737 18.3534C6.33815 18.3534 6.07812 18.1141 6.07812 17.7709C6.07812 17.4277 6.33295 17.1885 6.70737 17.1885C6.91019 17.1885 7.11301 17.1885 7.32102 17.1885C7.46663 17.1885 7.61745 17.1885 7.76306 17.1885H8.64713C8.79274 17.1885 8.93835 17.1885 9.08916 17.1885C9.29198 17.1885 9.49999 17.1885 9.70281 17.1885C10.0616 17.1885 10.3269 17.4329 10.3269 17.7657Z" fill="white"/>
</svg>
