<svg width="22" height="22" viewBox="0 0 22 22" fill="none" xmlns="http://www.w3.org/2000/svg">
<path opacity="0.4" d="M19.0428 16.5C19.7297 16.5 20.276 16.0678 20.7666 15.4633C21.7707 14.2261 20.122 13.2374 19.4933 12.7532C18.854 12.261 18.1403 11.9821 17.4167 11.9167M16.5 10.0833C17.7656 10.0833 18.7917 9.05732 18.7917 7.79167C18.7917 6.52602 17.7656 5.5 16.5 5.5" stroke="white" stroke-linecap="round"/>
<path opacity="0.4" d="M2.95709 16.5C2.27023 16.5 1.7239 16.0678 1.23338 15.4633C0.229206 14.2261 1.8779 13.2374 2.50672 12.7532C3.14593 12.261 3.85966 11.9821 4.58329 11.9167M5.04162 10.0833C3.77597 10.0833 2.74996 9.05732 2.74996 7.79167C2.74996 6.52602 3.77597 5.5 5.04162 5.5" stroke="white" stroke-linecap="round"/>
<path d="M7.41011 13.8519C6.47348 14.4311 4.0177 15.6137 5.51343 17.0934C6.24409 17.8163 7.05785 18.3333 8.08095 18.3333H13.919C14.9421 18.3333 15.7558 17.8163 16.4865 17.0934C17.9822 15.6137 15.5265 14.4311 14.5898 13.8519C12.3934 12.4938 9.60653 12.4938 7.41011 13.8519Z" stroke="white" stroke-linecap="round" stroke-linejoin="round"/>
<path d="M14.2083 6.875C14.2083 8.64691 12.7719 10.0833 11 10.0833C9.22804 10.0833 7.79163 8.64691 7.79163 6.875C7.79163 5.10308 9.22804 3.66666 11 3.66666C12.7719 3.66666 14.2083 5.10308 14.2083 6.875Z" stroke="white"/>
</svg>
