<svg width="20" height="20" viewBox="0 0 20 20" fill="none" xmlns="http://www.w3.org/2000/svg">
<path d="M7.83618 14.428C7.46714 14.7211 7.10895 15.0033 6.75076 15.2909C4.94352 16.7183 3.14171 18.151 1.33448 19.5838C1.04141 19.8117 0.791763 19.8389 0.536688 19.6652C0.13508 19.3938 0.113371 18.8945 0.498698 18.5852C1.19337 18.0262 1.8989 17.4726 2.599 16.9191C4.22171 15.6328 5.84443 14.3412 7.47257 13.0549C7.8796 12.7347 8.23779 12.7836 8.54714 13.2015C9.2798 14.1838 10.0125 15.1715 10.7451 16.1538C10.8048 16.2352 10.8645 16.3166 10.9405 16.4143C12.916 14.8785 14.886 13.348 16.8995 11.7796C16.5467 11.7579 16.2482 11.7416 15.9552 11.7253C15.3311 11.6927 14.7124 11.6656 14.0882 11.6385C13.6541 11.6167 13.4044 11.3671 13.4153 10.9655C13.4261 10.5693 13.7029 10.3197 14.1317 10.3359C15.6133 10.4011 17.0949 10.4716 18.5765 10.553C19.168 10.5856 19.4068 10.9058 19.2874 11.4919C18.9998 12.941 18.7122 14.39 18.4245 15.8391C18.3431 16.2569 18.0392 16.474 17.6484 16.3926C17.2631 16.3166 17.0677 15.9964 17.1491 15.5786C17.3282 14.6668 17.5073 13.7605 17.6973 12.8053C17.567 12.9084 17.4639 12.9844 17.3662 13.0604C15.3473 14.6288 13.3339 16.1918 11.315 17.7603C10.87 18.1076 10.5389 18.0588 10.197 17.6029C9.46432 16.6206 8.73166 15.6328 7.999 14.6505C7.95558 14.58 7.90131 14.5094 7.83618 14.428Z" fill="white"/>
<path d="M16.2319 8.17588C16.2536 6.05387 15.4667 4.29005 13.8114 2.95498C11.4235 1.02292 7.98269 1.05548 5.65988 3.00925C3.05485 5.20181 2.53927 9.09849 4.49847 11.8012C4.7047 12.0834 4.94892 12.3439 5.18771 12.599C5.48621 12.9192 5.51334 13.3099 5.24199 13.5922C4.97606 13.8689 4.59073 13.8418 4.27053 13.527C1.87173 11.1554 1.30731 7.5789 2.88118 4.50714C3.99917 2.32543 5.73586 0.908948 8.15093 0.39337C12.3244 -0.49668 16.4544 2.17347 17.3716 6.34151C17.5616 7.20985 17.6267 8.08905 17.491 8.96824C17.4205 9.42412 17.1274 9.63578 16.7312 9.56523C16.4382 9.51638 16.2591 9.33729 16.2374 9.03337C16.2157 8.74573 16.2319 8.45809 16.2319 8.17588Z" fill="white"/>
<path d="M9.31782 10.8242C8.8131 10.8242 8.31923 10.8297 7.83079 10.8242C7.51059 10.8188 7.30436 10.6723 7.2121 10.3955C7.06556 9.93961 7.36406 9.52715 7.8525 9.52715C8.6937 9.52172 9.52948 9.53258 10.3707 9.52172C10.8157 9.5163 11.0925 9.2178 11.0708 8.77821C11.0545 8.38203 10.7777 8.12152 10.349 8.11067C9.93109 8.09982 9.50777 8.12152 9.08988 8.09439C7.95019 8.02384 7.17953 7.20977 7.18496 6.10263C7.19039 4.96836 7.97189 4.14886 9.11702 4.07831C9.17672 4.07288 9.23642 4.07288 9.32868 4.06745C9.32868 3.86122 9.31782 3.66042 9.32868 3.45962C9.35039 3.09057 9.63803 2.82464 9.99622 2.8355C10.349 2.84635 10.6149 3.12313 10.6258 3.49761C10.6312 3.62786 10.6258 3.75268 10.6258 3.88293C10.6258 3.9372 10.6312 3.98605 10.6366 4.06745C10.8863 4.06745 11.1305 4.06745 11.3693 4.06745C11.4995 4.06745 11.6244 4.06203 11.7546 4.07288C12.1399 4.10002 12.3787 4.36052 12.3679 4.74042C12.3624 5.12032 12.1128 5.36454 11.7166 5.36997C10.8971 5.37539 10.0776 5.36997 9.25813 5.37539C8.82396 5.37539 8.57431 5.55449 8.48747 5.92353C8.38436 6.36856 8.66114 6.77017 9.12245 6.7973C9.58918 6.81901 10.0559 6.7973 10.5226 6.82444C11.5484 6.88956 12.281 7.64394 12.357 8.68052C12.433 9.68997 11.8035 10.5475 10.8049 10.7645C10.642 10.7971 10.6095 10.8622 10.6203 11.0033C10.6312 11.1444 10.6258 11.2855 10.6203 11.4321C10.6095 11.8011 10.3707 12.0399 10.0071 12.0508C9.6326 12.0616 9.36124 11.8391 9.32868 11.4701C9.31782 11.3235 9.32325 11.1716 9.32325 11.025C9.32868 10.9653 9.32325 10.9056 9.31782 10.8242Z" fill="white"/>
</svg>
