<svg width="38" height="34" viewBox="0 0 38 34" fill="none" xmlns="http://www.w3.org/2000/svg">
<g clip-path="url(#clip0_2_912)">
<path d="M7.50308 0.0200236C12.8339 8.75029 25.0446 8.81036 30.456 0C31.9848 1.1013 33.2723 2.44287 34.3384 3.98469C34.4591 4.1649 34.3384 4.62544 34.1775 4.82568C30.7376 9.29093 26.2114 11.874 20.5386 12.3545C15.9319 12.735 11.7074 11.5736 7.92553 8.91048C7.82495 8.83039 7.70425 8.79034 7.48297 8.65018C5.35062 12.7951 5.14946 16.96 7.32204 21.0448C9.89694 25.8704 14.0611 28.3333 19.5528 28.1131C24.7429 27.9128 28.4443 25.2097 30.9589 20.5041C29.3898 20.9046 28.0018 21.265 26.6137 21.5854C22.9928 22.4264 19.3114 22.5465 15.61 22.2462C12.0896 21.9458 10.1585 20.1237 9.5952 16.6396C9.4745 15.8386 9.51473 14.9976 9.4745 14.1366C19.7942 17.3204 29.0076 16.2992 36.4909 7.92933C39.5888 14.5171 38.241 25.51 28.7662 31.2768C20.1161 36.563 8.68995 33.9399 3.07746 25.4099C-2.4948 16.9399 -0.221639 5.70671 7.50308 0.0200236Z" fill="#3381F7"/>
</g>
<defs>
<clipPath id="clip0_2_912">
<rect width="38" height="34" fill="white"/>
</clipPath>
</defs>
</svg>
