<svg width="48" height="48" viewBox="0 0 48 48" fill="none" xmlns="http://www.w3.org/2000/svg">
<circle opacity="0.29" cx="24" cy="24" r="23.5" fill="#CFE2FF" stroke="white"/>
<path d="M29.203 22.4632V21.8722C29.203 18.6289 26.668 16 23.5446 16C20.4211 16 17.8861 18.6289 17.8861 21.8722V22.4632C17.8871 23.1686 17.6858 23.8596 17.306 24.4541L16.3772 25.9002C15.5297 27.2205 16.1769 29.0152 17.6514 29.4327C21.5043 30.5249 25.5849 30.5249 29.4377 29.4327C30.9123 29.0152 31.5594 27.2205 30.7119 25.901L29.7831 24.455C29.403 23.8605 29.2014 23.1696 29.2022 22.464L29.203 22.4632Z" stroke="#061A3A" stroke-width="1.4"/>
<path d="M19.7722 30.2509C20.3213 31.7162 21.8025 32.7657 23.5445 32.7657C25.2865 32.7657 26.7677 31.7162 27.3168 30.2509" stroke="#061A3A" stroke-width="1.4" stroke-linecap="round"/>
<circle cx="28.5711" cy="18.2857" r="3.42857" fill="#FF9136"/>
</svg>
