<svg width="137" height="27" viewBox="0 0 137 27" fill="none" xmlns="http://www.w3.org/2000/svg">
<path d="M16.3624 10.6651V18.6055C16.0505 18.9817 15.5688 19.3899 14.9174 19.8303C14.2661 20.2615 13.4266 20.633 12.3991 20.945C11.3716 21.2569 10.1284 21.4128 8.66972 21.4128C7.37615 21.4128 6.19725 21.2018 5.13303 20.7798C4.06881 20.3486 3.15138 19.7202 2.38073 18.8945C1.61927 18.0688 1.03211 17.0596 0.619266 15.867C0.206422 14.6651 0 13.2936 0 11.7523V10.5C0 8.95872 0.197248 7.58716 0.591743 6.38532C0.995413 5.18349 1.56881 4.16972 2.31193 3.34404C3.05505 2.51835 3.94037 1.88991 4.96789 1.45872C5.99541 1.02752 7.13761 0.811927 8.3945 0.811927C10.1376 0.811927 11.5688 1.09633 12.6881 1.66514C13.8073 2.22477 14.6606 3.00459 15.2477 4.00459C15.844 4.99541 16.211 6.13303 16.3486 7.41743H12.344C12.2431 6.73853 12.0505 6.14679 11.7661 5.6422C11.4817 5.13761 11.0734 4.74312 10.5413 4.45872C10.0183 4.17431 9.33945 4.03211 8.50459 4.03211C7.81651 4.03211 7.20183 4.17431 6.66055 4.45872C6.12844 4.73394 5.6789 5.1422 5.31193 5.68349C4.94495 6.22477 4.66514 6.8945 4.47248 7.69266C4.27982 8.49083 4.18349 9.41743 4.18349 10.4725V11.7523C4.18349 12.7982 4.2844 13.7248 4.48624 14.5321C4.68807 15.3303 4.98624 16.0046 5.38073 16.555C5.7844 17.0963 6.27982 17.5046 6.86697 17.7798C7.45413 18.055 8.13761 18.1927 8.91743 18.1927C9.56881 18.1927 10.1101 18.1376 10.5413 18.0275C10.9817 17.9174 11.3349 17.7844 11.6009 17.6284C11.8761 17.4633 12.0872 17.3073 12.2339 17.1606V13.6101H8.4633V10.6651H16.3624Z" fill="#050953"/>
<path d="M23.6284 6.24771V21.1376H19.6514V6.24771H23.6284ZM19.4037 2.36697C19.4037 1.78899 19.6055 1.31193 20.0092 0.93578C20.4128 0.559633 20.9541 0.37156 21.633 0.37156C22.3028 0.37156 22.8395 0.559633 23.2431 0.93578C23.656 1.31193 23.8624 1.78899 23.8624 2.36697C23.8624 2.94495 23.656 3.42202 23.2431 3.79817C22.8395 4.17431 22.3028 4.36239 21.633 4.36239C20.9541 4.36239 20.4128 4.17431 20.0092 3.79817C19.6055 3.42202 19.4037 2.94495 19.4037 2.36697Z" fill="#050953"/>
<path d="M36.3303 6.24771H39.922V20.6422C39.922 22 39.6193 23.1514 39.0138 24.0963C38.4174 25.0505 37.5826 25.7706 36.5092 26.2569C35.4358 26.7523 34.1881 27 32.7661 27C32.1422 27 31.4817 26.9174 30.7844 26.7523C30.0963 26.5872 29.4358 26.3303 28.8028 25.9817C28.1789 25.633 27.656 25.1927 27.2339 24.6606L28.9817 22.3211C29.4404 22.8532 29.9725 23.2661 30.578 23.5596C31.1835 23.8624 31.8532 24.0138 32.5872 24.0138C33.3028 24.0138 33.9083 23.8807 34.4037 23.6147C34.8991 23.3578 35.2798 22.9771 35.5459 22.4725C35.8119 21.9771 35.945 21.3761 35.945 20.6697V9.68807L36.3303 6.24771ZM26.3119 13.8716V13.5826C26.3119 12.445 26.4495 11.4128 26.7248 10.4862C27.0092 9.55046 27.4083 8.74771 27.922 8.07798C28.445 7.40826 29.078 6.88991 29.8211 6.52294C30.5642 6.15596 31.4037 5.97248 32.3394 5.97248C33.3303 5.97248 34.1606 6.15596 34.8303 6.52294C35.5 6.88991 36.0505 7.41284 36.4817 8.09174C36.9128 8.76147 37.2477 9.55505 37.4862 10.4725C37.7339 11.3807 37.9266 12.3761 38.0642 13.4587V14.0917C37.9266 15.1284 37.7202 16.0917 37.445 16.9817C37.1697 17.8716 36.8073 18.6514 36.3578 19.3211C35.9083 19.9817 35.3486 20.4954 34.6789 20.8624C34.0183 21.2294 33.2294 21.4128 32.3119 21.4128C31.3945 21.4128 30.5642 21.2248 29.8211 20.8486C29.0872 20.4725 28.4587 19.945 27.9358 19.2661C27.4128 18.5872 27.0092 17.789 26.7248 16.8716C26.4495 15.9541 26.3119 14.9541 26.3119 13.8716ZM30.2752 13.5826V13.8716C30.2752 14.4862 30.3349 15.0596 30.4541 15.5917C30.5734 16.1239 30.7569 16.5963 31.0046 17.0092C31.2615 17.4128 31.578 17.7294 31.9541 17.9587C32.3394 18.1789 32.7936 18.289 33.3165 18.289C34.0413 18.289 34.633 18.1376 35.0917 17.8349C35.5505 17.5229 35.8945 17.0963 36.1239 16.555C36.3532 16.0138 36.4862 15.3899 36.5229 14.6835V12.8807C36.5046 12.3028 36.4266 11.7844 36.289 11.3257C36.1514 10.8578 35.9587 10.4587 35.711 10.1284C35.4633 9.79817 35.1422 9.54128 34.7477 9.3578C34.3532 9.17431 33.8853 9.08257 33.344 9.08257C32.8211 9.08257 32.367 9.20183 31.9817 9.44037C31.6055 9.66972 31.289 9.98624 31.0321 10.3899C30.7844 10.7936 30.5963 11.2706 30.4679 11.8211C30.3395 12.3624 30.2752 12.9495 30.2752 13.5826Z" fill="#050953"/>
<path d="M51.0413 17.7798V11.1468C51.0413 10.6697 50.9633 10.2615 50.8073 9.92202C50.6514 9.57339 50.4083 9.30275 50.078 9.11009C49.7569 8.91743 49.3395 8.8211 48.8257 8.8211C48.3853 8.8211 48.0046 8.89908 47.6835 9.05505C47.3624 9.20183 47.1147 9.41743 46.9404 9.70183C46.7661 9.97706 46.6789 10.3028 46.6789 10.6789H42.7156C42.7156 10.0459 42.8624 9.44495 43.156 8.87615C43.4495 8.30734 43.8761 7.80734 44.4358 7.37615C44.9954 6.93578 45.6606 6.59174 46.4312 6.34404C47.211 6.09633 48.0826 5.97248 49.0459 5.97248C50.2018 5.97248 51.2294 6.16514 52.1284 6.55046C53.0275 6.93578 53.7339 7.51376 54.2477 8.2844C54.7706 9.05505 55.0321 10.0183 55.0321 11.1743V17.5459C55.0321 18.3624 55.0826 19.0321 55.1835 19.555C55.2844 20.0688 55.4312 20.5183 55.6239 20.9037V21.1376H51.6193C51.4266 20.7339 51.2798 20.2294 51.1789 19.6239C51.0872 19.0092 51.0413 18.3945 51.0413 17.7798ZM51.5642 12.0688L51.5917 14.3119H49.3761C48.8532 14.3119 48.3991 14.3716 48.0138 14.4908C47.6284 14.6101 47.3119 14.7798 47.0642 15C46.8165 15.211 46.633 15.4587 46.5138 15.7431C46.4037 16.0275 46.3486 16.3394 46.3486 16.6789C46.3486 17.0183 46.4266 17.3257 46.5826 17.6009C46.7385 17.867 46.9633 18.078 47.2569 18.2339C47.5505 18.3807 47.8945 18.4541 48.289 18.4541C48.8853 18.4541 49.4037 18.3349 49.844 18.0963C50.2844 17.8578 50.6239 17.5642 50.8624 17.2156C51.1101 16.867 51.2385 16.5367 51.2477 16.2248L52.2936 17.9037C52.1468 18.2798 51.945 18.6697 51.6881 19.0734C51.4404 19.4771 51.1239 19.8578 50.7385 20.2156C50.3532 20.5642 49.8899 20.8532 49.3486 21.0826C48.8073 21.3028 48.1651 21.4128 47.422 21.4128C46.4771 21.4128 45.6193 21.2248 44.8486 20.8486C44.0872 20.4633 43.4817 19.9358 43.0321 19.2661C42.5917 18.5872 42.3716 17.8165 42.3716 16.9541C42.3716 16.1743 42.5183 15.4817 42.8119 14.8761C43.1055 14.2706 43.5367 13.7615 44.1055 13.3486C44.6835 12.9266 45.4037 12.6101 46.2661 12.3991C47.1284 12.1789 48.1284 12.0688 49.2661 12.0688H51.5642Z" fill="#050953"/>
<path d="M73.1972 12.344H68.0505L68.0229 9.50917H72.344C73.1055 9.50917 73.7294 9.41284 74.2156 9.22018C74.7018 9.01835 75.0642 8.72936 75.3028 8.35321C75.5505 7.96789 75.6743 7.5 75.6743 6.94954C75.6743 6.32569 75.555 5.8211 75.3165 5.43578C75.0872 5.05046 74.7248 4.77064 74.2294 4.59633C73.7431 4.42202 73.1147 4.33486 72.344 4.33486H69.4817V21.1376H65.3532V1.10092H72.344C73.5092 1.10092 74.5505 1.21101 75.4679 1.43119C76.3945 1.65138 77.1789 1.98624 77.8211 2.43578C78.4633 2.88532 78.9541 3.45413 79.2936 4.1422C79.633 4.8211 79.8028 5.62844 79.8028 6.56422C79.8028 7.38991 79.6147 8.15138 79.2385 8.84862C78.8716 9.54587 78.289 10.1147 77.4908 10.555C76.7018 10.9954 75.6697 11.2385 74.3945 11.2844L73.1972 12.344ZM73.0183 21.1376H66.922L68.5321 17.9174H73.0183C73.7431 17.9174 74.3349 17.8028 74.7936 17.5734C75.2523 17.3349 75.5917 17.0138 75.8119 16.6101C76.0321 16.2064 76.1422 15.7431 76.1422 15.2202C76.1422 14.633 76.0413 14.1239 75.8394 13.6927C75.6468 13.2615 75.3349 12.9312 74.9037 12.7018C74.4725 12.4633 73.9037 12.344 73.1972 12.344H69.2202L69.2477 9.50917H74.2018L75.1514 10.6239C76.3716 10.6055 77.3532 10.8211 78.0963 11.2706C78.8486 11.711 79.3945 12.2844 79.7339 12.9908C80.0826 13.6972 80.2569 14.4541 80.2569 15.2615C80.2569 16.5459 79.9771 17.6284 79.4174 18.5092C78.8578 19.3807 78.0367 20.0367 76.9541 20.4771C75.8807 20.9174 74.5688 21.1376 73.0183 21.1376Z" fill="#050953"/>
<path d="M82.4725 13.844V13.555C82.4725 12.4633 82.6284 11.4587 82.9404 10.5413C83.2523 9.61468 83.7064 8.81193 84.3028 8.13303C84.8991 7.45413 85.633 6.92661 86.5046 6.55046C87.3761 6.16514 88.3761 5.97248 89.5046 5.97248C90.633 5.97248 91.6376 6.16514 92.5183 6.55046C93.3991 6.92661 94.1376 7.45413 94.7339 8.13303C95.3394 8.81193 95.7982 9.61468 96.1101 10.5413C96.422 11.4587 96.578 12.4633 96.578 13.555V13.844C96.578 14.9266 96.422 15.9312 96.1101 16.8578C95.7982 17.7752 95.3394 18.578 94.7339 19.2661C94.1376 19.945 93.4037 20.4725 92.5321 20.8486C91.6606 21.2248 90.6606 21.4128 89.5321 21.4128C88.4037 21.4128 87.3991 21.2248 86.5183 20.8486C85.6468 20.4725 84.9083 19.945 84.3028 19.2661C83.7064 18.578 83.2523 17.7752 82.9404 16.8578C82.6284 15.9312 82.4725 14.9266 82.4725 13.844ZM86.4358 13.555V13.844C86.4358 14.4679 86.4908 15.0505 86.6009 15.5917C86.711 16.133 86.8853 16.6101 87.1239 17.0229C87.3716 17.4266 87.6927 17.7431 88.0872 17.9725C88.4817 18.2018 88.9633 18.3165 89.5321 18.3165C90.0826 18.3165 90.555 18.2018 90.9495 17.9725C91.344 17.7431 91.6606 17.4266 91.8991 17.0229C92.1376 16.6101 92.3119 16.133 92.422 15.5917C92.5413 15.0505 92.6009 14.4679 92.6009 13.844V13.555C92.6009 12.9495 92.5413 12.3807 92.422 11.8486C92.3119 11.3073 92.133 10.8303 91.8853 10.4174C91.6468 9.99541 91.3303 9.66514 90.9358 9.42661C90.5413 9.18807 90.0642 9.06881 89.5046 9.06881C88.945 9.06881 88.4679 9.18807 88.0734 9.42661C87.6881 9.66514 87.3716 9.99541 87.1239 10.4174C86.8853 10.8303 86.711 11.3073 86.6009 11.8486C86.4908 12.3807 86.4358 12.9495 86.4358 13.555Z" fill="#050953"/>
<path d="M107.05 17.7798V11.1468C107.05 10.6697 106.972 10.2615 106.817 9.92202C106.661 9.57339 106.417 9.30275 106.087 9.11009C105.766 8.91743 105.349 8.8211 104.835 8.8211C104.394 8.8211 104.014 8.89908 103.693 9.05505C103.372 9.20183 103.124 9.41743 102.95 9.70183C102.775 9.97706 102.688 10.3028 102.688 10.6789H98.7248C98.7248 10.0459 98.8716 9.44495 99.1651 8.87615C99.4587 8.30734 99.8853 7.80734 100.445 7.37615C101.005 6.93578 101.67 6.59174 102.44 6.34404C103.22 6.09633 104.092 5.97248 105.055 5.97248C106.211 5.97248 107.239 6.16514 108.138 6.55046C109.037 6.93578 109.743 7.51376 110.257 8.2844C110.78 9.05505 111.041 10.0183 111.041 11.1743V17.5459C111.041 18.3624 111.092 19.0321 111.193 19.555C111.294 20.0688 111.44 20.5183 111.633 20.9037V21.1376H107.628C107.436 20.7339 107.289 20.2294 107.188 19.6239C107.096 19.0092 107.05 18.3945 107.05 17.7798ZM107.573 12.0688L107.601 14.3119H105.385C104.862 14.3119 104.408 14.3716 104.023 14.4908C103.638 14.6101 103.321 14.7798 103.073 15C102.826 15.211 102.642 15.4587 102.523 15.7431C102.413 16.0275 102.358 16.3394 102.358 16.6789C102.358 17.0183 102.436 17.3257 102.592 17.6009C102.748 17.867 102.972 18.078 103.266 18.2339C103.56 18.3807 103.904 18.4541 104.298 18.4541C104.894 18.4541 105.413 18.3349 105.853 18.0963C106.294 17.8578 106.633 17.5642 106.872 17.2156C107.119 16.867 107.248 16.5367 107.257 16.2248L108.303 17.9037C108.156 18.2798 107.954 18.6697 107.697 19.0734C107.45 19.4771 107.133 19.8578 106.748 20.2156C106.362 20.5642 105.899 20.8532 105.358 21.0826C104.817 21.3028 104.174 21.4128 103.431 21.4128C102.486 21.4128 101.628 21.2248 100.858 20.8486C100.096 20.4633 99.4908 19.9358 99.0413 19.2661C98.6009 18.5872 98.3807 17.8165 98.3807 16.9541C98.3807 16.1743 98.5275 15.4817 98.8211 14.8761C99.1147 14.2706 99.5459 13.7615 100.115 13.3486C100.693 12.9266 101.413 12.6101 102.275 12.3991C103.138 12.1789 104.138 12.0688 105.275 12.0688H107.573Z" fill="#050953"/>
<path d="M118.06 9.49541V21.1376H114.096V6.24771H117.826L118.06 9.49541ZM122.546 6.15138L122.477 9.82569C122.284 9.79817 122.05 9.77523 121.775 9.75688C121.509 9.72936 121.266 9.7156 121.046 9.7156C120.486 9.7156 120 9.78899 119.587 9.93578C119.183 10.0734 118.844 10.2798 118.569 10.555C118.303 10.8303 118.101 11.1651 117.963 11.5596C117.835 11.9541 117.761 12.4037 117.743 12.9083L116.945 12.6606C116.945 11.6972 117.041 10.8119 117.234 10.0046C117.427 9.18807 117.706 8.47706 118.073 7.87156C118.45 7.26606 118.908 6.79817 119.45 6.46789C119.991 6.13761 120.61 5.97248 121.307 5.97248C121.528 5.97248 121.752 5.99083 121.982 6.02752C122.211 6.05505 122.399 6.09633 122.546 6.15138Z" fill="#050953"/>
<path d="M132.936 17.8899V0H136.927V21.1376H133.335L132.936 17.8899ZM123.523 13.8716V13.5826C123.523 12.445 123.651 11.4128 123.908 10.4862C124.165 9.55046 124.541 8.74771 125.037 8.07798C125.532 7.40826 126.142 6.88991 126.867 6.52294C127.592 6.15596 128.417 5.97248 129.344 5.97248C130.216 5.97248 130.977 6.15596 131.628 6.52294C132.289 6.88991 132.849 7.41284 133.307 8.09174C133.775 8.76147 134.151 9.55505 134.436 10.4725C134.72 11.3807 134.927 12.3761 135.055 13.4587V14.0917C134.927 15.1284 134.72 16.0917 134.436 16.9817C134.151 17.8716 133.775 18.6514 133.307 19.3211C132.849 19.9817 132.289 20.4954 131.628 20.8624C130.968 21.2294 130.197 21.4128 129.317 21.4128C128.39 21.4128 127.564 21.2248 126.839 20.8486C126.124 20.4725 125.518 19.945 125.023 19.2661C124.537 18.5872 124.165 17.789 123.908 16.8716C123.651 15.9541 123.523 14.9541 123.523 13.8716ZM127.486 13.5826V13.8716C127.486 14.4862 127.532 15.0596 127.624 15.5917C127.725 16.1239 127.885 16.5963 128.106 17.0092C128.335 17.4128 128.628 17.7294 128.986 17.9587C129.353 18.1789 129.798 18.289 130.321 18.289C131 18.289 131.56 18.1376 132 17.8349C132.44 17.5229 132.775 17.0963 133.005 16.555C133.243 16.0138 133.381 15.3899 133.417 14.6835V12.8807C133.39 12.3028 133.307 11.7844 133.17 11.3257C133.041 10.8578 132.849 10.4587 132.592 10.1284C132.344 9.79817 132.032 9.54128 131.656 9.3578C131.289 9.17431 130.853 9.08257 130.349 9.08257C129.835 9.08257 129.394 9.20183 129.028 9.44037C128.661 9.66972 128.362 9.98624 128.133 10.3899C127.913 10.7936 127.748 11.2706 127.638 11.8211C127.537 12.3624 127.486 12.9495 127.486 13.5826Z" fill="#050953"/>
</svg>
